<?xml version="1.0" encoding="UTF-8" standalone="no"?>
<!-- Generator: Adobe Illustrator 19.0.0, SVG Export Plug-In . SVG Version: 6.00 Build 0)  -->

<svg
   xmlns:dc="http://purl.org/dc/elements/1.1/"
   xmlns:cc="http://creativecommons.org/ns#"
   xmlns:rdf="http://www.w3.org/1999/02/22-rdf-syntax-ns#"
   xmlns:svg="http://www.w3.org/2000/svg"
   xmlns="http://www.w3.org/2000/svg"
   xmlns:sodipodi="http://sodipodi.sourceforge.net/DTD/sodipodi-0.dtd"
   xmlns:inkscape="http://www.inkscape.org/namespaces/inkscape"
   version="1.1"
   id="Capa_1"
   x="0px"
   y="0px"
   viewBox="0 0 512 512"
   style="enable-background:new 0 0 512 512;"
   xml:space="preserve"
   sodipodi:docname="upload-white.svg"
   inkscape:version="0.92.4 (5da689c313, 2019-01-14)"><metadata
   id="metadata144"><rdf:RDF><cc:Work
       rdf:about=""><dc:format>image/svg+xml</dc:format><dc:type
         rdf:resource="http://purl.org/dc/dcmitype/StillImage" /><dc:title></dc:title></cc:Work></rdf:RDF></metadata><defs
   id="defs142" /><sodipodi:namedview
   pagecolor="#ffffff"
   bordercolor="#666666"
   borderopacity="1"
   objecttolerance="10"
   gridtolerance="10"
   guidetolerance="10"
   inkscape:pageopacity="0"
   inkscape:pageshadow="2"
   inkscape:window-width="1080"
   inkscape:window-height="1899"
   id="namedview140"
   showgrid="false"
   inkscape:zoom="1.2617188"
   inkscape:cx="139.49226"
   inkscape:cy="256"
   inkscape:window-x="1600"
   inkscape:window-y="0"
   inkscape:window-maximized="1"
   inkscape:current-layer="Capa_1" />
<g
   id="g101"
   style="fill:#ffffff;fill-opacity:1">
	<g
   id="g99"
   style="fill:#ffffff;fill-opacity:1">
		<path
   d="M492,324.133c-11.046,0-20,8.954-20,20v118.49c0,5.17-4.207,9.377-9.378,9.377H49.378c-5.171,0-9.378-4.206-9.378-9.377    v-118.49c0-11.046-8.954-20-20-20s-20,8.954-20,20v118.49C0,489.85,22.151,512,49.378,512h413.244    C489.849,512,512,489.85,512,462.623v-118.49C512,333.087,503.046,324.133,492,324.133z"
   id="path97"
   style="fill:#ffffff;fill-opacity:1" />
	</g>
</g>
<g
   id="g107"
   style="opacity:1;fill:#ffffff;fill-opacity:1">
	<g
   id="g105"
   style="fill:#ffffff;fill-opacity:1">
		<path
   d="M417.436,161.976L270.548,6.275C266.77,2.271,261.507,0,256,0s-10.77,2.271-14.548,6.275L94.564,161.977    c-5.478,5.807-6.978,14.316-3.816,21.646s10.381,12.078,18.364,12.078h68.133v216c0,11.046,8.954,20,20,20h117.51    c11.046,0,20-8.954,20-20.001v-216h68.133c7.983,0,15.201-4.748,18.364-12.078C424.415,176.292,422.915,167.783,417.436,161.976z     M314.755,155.701c-11.046,0-20,8.954-20,20v216h-77.509v-216c0-11.046-8.954-20-20-20h-41.77L256,49.145l100.525,106.556H314.755    z"
   id="path103"
   style="fill:#ffffff;fill-opacity:1" />
	</g>
</g>
<g
   id="g109">
</g>
<g
   id="g111">
</g>
<g
   id="g113">
</g>
<g
   id="g115">
</g>
<g
   id="g117">
</g>
<g
   id="g119">
</g>
<g
   id="g121">
</g>
<g
   id="g123">
</g>
<g
   id="g125">
</g>
<g
   id="g127">
</g>
<g
   id="g129">
</g>
<g
   id="g131">
</g>
<g
   id="g133">
</g>
<g
   id="g135">
</g>
<g
   id="g137">
</g>
</svg>